:SAMPLES-PER-SECOND 30
:FULLY-SPECIFIED
:DEGREES
1253
root  6.61997 38.0772 -5.34246 33.654 79.3685 36.6335
RightUpLeg  -21.5536 -6.03396 -3.80068
RightLeg  -1.41989 -2.14478 0.939198
RightFoot  -5.38881 -0.326772 5.56454
RightToes  5.82063e-011 0 -3.6325e-017
Spine  7.6668 -2.38226 -7.30162
Spine1  9.542 -3.26766 1.28271
HEad  -7.29359 8.71764 -4.16304
LeftShoulder1  -0.0902209 3.73207 -33.4368
LeftArm  9.16072 -8.86513 -46.4374
LeftForeArm  11.4495 -16.891 -7.04625
LeftHand  -0.0263632 6.47195 1.06939
RightShoulder  -0.664237 -5.37771 28.7466
RightArm  15.2854 -10.0559 43.1875
RightForeArm  8.55365 18.395 4.57325
RightHand  -0.133974 3.12729 -2.07299
LeftUpLeg  14.5926 7.31184 -6.07526
LeftLeg  9.62574 10.3778 -0.382726
LeftFoot  -20.3607 0.0457669 -0.96631
LeftToes  -1.20963e-009 8.6283e-011 2.04439e-011
1254
root  7.81624 37.7519 -5.25083 33.77 79.8852 36.6808
RightUpLeg  -22.8095 -6.27781 -3.6612
RightLeg  2.55197 -2.63506 0.911384
RightFoot  -4.83322 -0.306078 4.60414
RightToes  5.82063e-011 0 -3.6325e-017
Spine  7.83483 -2.62034 -6.2108
Spine1  9.78278 -3.52566 1.42799
HEad  -8.37914 8.67452 -4.84222
LeftShoulder1  -0.0305461 3.58162 -33.0373
LeftArm  9.76138 -9.2944 -47.8337
LeftForeArm  11.1179 -17.3215 -6.82664
LeftHand  -0.0316468 6.89049 1.18561
RightShoulder  -0.684017 -5.41856 29.0311
RightArm  13.0778 -9.46068 42.5983
RightForeArm  11.2229 13.9448 5.14789
RightHand  -0.128339 2.74347 -2.0246
LeftUpLeg  16.3482 7.62755 -5.4792
LeftLeg  10.3237 9.40914 -0.195364
LeftFoot  -22.2495 -0.00960008 -1.49629
LeftToes  -1.20963e-009 8.6283e-011 2.04439e-011
1255
root  9.05995 37.5236 -5.11874 31.2799 80.9733 33.9288
RightUpLeg  -24.4358 -7.06111 -2.39016
RightLeg  8.18861 -3.03477 0.563792
RightFoot  -1.61627 -0.0975274 1.77178
RightToes  5.82063e-011 0 -3.6325e-017
Spine  8.01915 -2.81341 -4.60104
Spine1  10.1527 -4.03237 2.58903
HEad  -9.80672 8.51274 -5.60227
LeftShoulder1  0.0601035 3.35007 -32.9737
LeftArm  10.1496 -9.63529 -48.774
LeftForeArm  11.1394 -16.9347 -7.10811
LeftHand  -0.0210426 6.69632 1.37641
RightShoulder  -0.680319 -5.41324 28.9339
RightArm  10.0124 -9.82376 41.7976
RightForeArm  14.0299 11.0305 4.99797
RightHand  -0.0676578 1.82149 -1.26018
LeftUpLeg  18.1036 8.08218 -3.97789
LeftLeg  10.794 7.8034 0.188639
LeftFoot  -23.4481 -0.12879 -2.54755
LeftToes  -1.20963e-009 8.6283e-011 2.04439e-011
1256
root  10.3774 37.3881 -4.93706 23.3087 81.976 25.722
RightUpLeg  -26.0405 -9.18945 0.0832278
RightLeg  13.1821 -2.03656 0.501186
RightFoot  5.34665 0.63762 -4.31899
RightToes  5.82063e-011 0 -3.6325e-017
Spine  8.44487 -2.90599 -2.38495
Spine1  10.4455 -4.55087 4.06744
HEad  -11.2053 8.84492 -6.54828
LeftShoulder1  0.0509285 3.37467 -33.3319
LeftArm  10.3552 -9.47621 -49.182
LeftForeArm  11.9516 -16.4508 -7.42129
LeftHand  -0.0189255 6.71182 1.37115
RightShoulder  -0.643603 -5.31223 28.8693
RightArm  8.53412 -10.7741 40.7004
RightForeArm  13.6512 9.53184 4.65108
RightHand  -0.0868781 1.73164 -1.55872
LeftUpLeg  19.9154 8.93805 -1.50496
LeftLeg  11.5594 5.64176 0.513395
LeftFoot  -23.7231 -0.369312 -4.70265
LeftToes  -1.20963e-009 8.6283e-011 2.04439e-011
1257
root  11.7914 37.1551 -4.71661 13.3036 81.8139 15.5415
RightUpLeg  -27.7498 -10.8631 2.5583
RightLeg  19.5793 1.05614 0.123663
RightFoot  6.36857 0.861043 -5.26544
RightToes  5.82063e-011 0 -3.6325e-017
Spine  8.74823 -2.91758 0.120015
Spine1  10.2181 -4.38476 4.19922
HEad  -12.2821 9.07532 -7.32037
LeftShoulder1  0.112401 3.21877 -33.2768
LeftArm  9.89944 -8.42138 -49.5077
LeftForeArm  14.021 -16.032 -7.59138
LeftHand  -0.0293068 6.90577 0.255566
RightShoulder  -0.637389 -5.29 28.9564
RightArm  7.80549 -11.5725 39.6021
RightForeArm  12.79 8.98478 4.33597
RightHand  -0.0611608 0.936147 -1.22619
LeftUpLeg  21.0484 10.2247 0.907964
LeftLeg  14.3816 3.09635 0.728655
LeftFoot  -23.8805 -0.72971 -7.93501
LeftToes  -1.20963e-009 8.6283e-011 2.04439e-011
1258
root  13.1727 36.9577 -4.51313 4.37073 80.9578 6.57959
RightUpLeg  -28.5508 -9.59483 3.54107
RightLeg  25.4886 0.548657 0.0568382
RightFoot  3.85863 0.916819 -6.67606
RightToes  5.82063e-011 0 -3.6325e-017
Spine  9.47737 -3.08202 2.80097
Spine1  9.88863 -4.15883 3.92827
HEad  -13.1287 10.0144 -8.20847
LeftShoulder1  0.186812 3.03003 -33.3488
LeftArm  9.59062 -6.63634 -49.1237
LeftForeArm  15.1139 -15.8646 -7.65846
LeftHand  -0.0267047 6.82864 0.653177
RightShoulder  -0.5804 -5.13997 28.6976
RightArm  8.21156 -11.8811 39.0976
RightForeArm  11.3386 8.91484 4.49192
RightHand  -0.134254 0.946255 -2.556
LeftUpLeg  21.2106 11.0103 2.89316
LeftLeg  19.0896 1.21239 0.798631
LeftFoot  -22.8572 -1.10318 -12.2912
LeftToes  -1.20963e-009 8.6283e-011 2.04439e-011
1259
root  14.4856 36.7649 -4.24551 -2.55164 80.339 -0.358643
RightUpLeg  -28.767 -9.08451 4.67081
RightLeg  30.3434 0.229975 -0.101372
RightFoot  0.526151 0.81382 -7.75087
RightToes  5.82063e-011 0 -3.6325e-017
Spine  9.91509 -3.51707 4.74102
Spine1  10.2546 -4.36418 4.40861
HEad  -13.5362 11.3603 -8.73896
LeftShoulder1  0.253262 2.85376 -32.8433
LeftArm  8.6384 -4.64056 -48.6274
LeftForeArm  15.5658 -15.1012 -8.0384
LeftHand  -0.0153497 6.39535 1.5016
RightShoulder  -0.521138 -4.98498 28.357
RightArm  10.0424 -11.7972 38.9311
RightForeArm  11.9575 10.0721 4.97102
RightHand  -0.144933 1.5946 -2.57671
LeftUpLeg  19.2355 10.9137 4.91067
LeftLeg  27.1226 -0.157784 0.239031
LeftFoot  -19.4935 -1.03669 -16.4399
LeftToes  -1.20963e-009 8.6283e-011 2.04439e-011
1260
root  15.7505 36.6329 -3.93732 -6.98218 80.1127 -5.17511
RightUpLeg  -28.6712 -8.42495 5.42945
RightLeg  33.9683 -0.365464 -0.522025
RightFoot  -2.90065 0.573226 -8.02486
RightToes  5.82063e-011 0 -3.6325e-017
Spine  10.0534 -3.65602 6.19064
Spine1  10.0002 -4.36196 5.1151
HEad  -13.1812 11.5879 -8.86758
LeftShoulder1  0.273269 2.80161 -32.8149
LeftArm  6.01333 -3.47611 -48.1113
LeftForeArm  18.8702 -13.3074 -8.70048
LeftHand  -0.0350081 6.7042 0.193745
RightShoulder  -0.492374 -4.91806 27.9513
RightArm  11.9688 -12.5031 38.6797
RightForeArm  13.3458 13.0286 4.88242
RightHand  -0.0908809 2.21792 -1.5629
LeftUpLeg  14.775 10.6594 6.67896
LeftLeg  37.4137 -0.791423 -0.242975
LeftFoot  -11.5214 -0.0190636 -17.5977
LeftToes  -1.20963e-009 8.6283e-011 2.04439e-011
1261
root  16.9593 36.562 -3.64005 -11.5704 79.9576 -9.90112
RightUpLeg  -27.7732 -8.07587 6.19363
RightLeg  36.4605 -0.873162 -0.969235
RightFoot  -5.74534 0.377989 -8.49033
RightToes  5.82063e-011 0 -3.6325e-017
Spine  10.1839 -3.72073 7.76644
Spine1  9.79111 -4.19691 5.2296
HEad  -13.2362 11.5034 -8.82835
LeftShoulder1  0.218606 2.946 -33.075
LeftArm  2.91594 -2.28985 -47.6776
LeftForeArm  22.2219 -12.4834 -8.53495
LeftHand  -0.0474075 7.05856 -0.617667
RightShoulder  -0.44722 -4.79636 27.685
RightArm  14.3439 -12.6272 38.7216
RightForeArm  12.0868 15.8235 4.73094
RightHand  -0.157829 2.79363 -2.4544
LeftUpLeg  8.93403 9.87665 7.88954
LeftLeg  48.1969 -0.110316 0.317151
LeftFoot  1.39373 1.29956 -12.0614
LeftToes  -1.20963e-009 8.6283e-011 2.04439e-011
1262
root  18.0414 36.4664 -3.37952 -17.1218 80.2686 -15.056
RightUpLeg  -26.281 -8.15995 6.81625
RightLeg  38.5602 -1.42404 -1.50159
RightFoot  -8.59744 0.146346 -8.47926
RightToes  5.82063e-011 0 -3.6325e-017
Spine  10.6411 -3.99254 9.59825
Spine1  10.0089 -4.01913 4.99542
HEad  -13.3455 11.1055 -8.70332
LeftShoulder1  0.22388 2.93545 -33.2829
LeftArm  1.85866 -1.30346 -46.9211
LeftForeArm  21.7047 -12.6943 -8.21478
LeftHand  -0.0340467 7.27747 0.297182
RightShoulder  -0.475528 -4.86688 27.9988
RightArm  15.8201 -12.0516 38.6992
RightForeArm  9.62917 18.4517 4.47624
RightHand  -0.195526 3.75859 -2.73969
LeftUpLeg  3.56106 8.59424 8.89105
LeftLeg  57.1021 0.124895 0.682186
LeftFoot  9.44448 1.2731 -7.00299
LeftToes  -1.20963e-009 8.6283e-011 2.04439e-011
